<svg xmlns="http://www.w3.org/2000/svg" xmlns:xlink="http://www.w3.org/1999/xlink" width="228.729950" height="83.444588" viewBox="0 0 228.73 83.4446"><path d="M7.97194 40.9501Q8.16555 41.1323 8.54137 41.1323L8.63247 41.1323Q9.61188 41.0867 10.8191 39.8226Q11.3771 39.3101 11.8213 39.3101Q12.2654 39.3101 12.2654 40.0618Q12.2654 40.802 11.0127 42.3964Q9.61188 43.9794 8.2111 43.9794L7.74417 43.9794Q6.16117 43.7972 5.36398 42.7722Q4.56678 41.6448 4.52123 39.5037L4.52123 15.474L4.38457 10.4859Q4.38457 10.0189 5.25009 10.0189Q6.11562 10.0189 6.96975 10.372Q7.83528 10.725 7.83528 11.3286L7.74417 15.474L7.74417 39.3671Q7.74417 40.6198 7.97194 40.9501ZM16.6966 42.2028L16.7877 38.103L16.7877 25.8375L16.651 20.838Q16.651 20.428 17.4824 20.428Q18.3252 20.428 19.2135 20.7811Q20.1018 21.1227 20.1018 21.6807L20.0107 25.8375L20.0107 38.103L20.1473 43.0456Q20.1473 43.4669 19.3273 43.4669Q18.5188 43.4669 17.6077 43.1139Q16.6966 42.7722 16.6966 42.2028ZM18.2113 10.4403Q19.2135 10.4403 19.9309 11.3742Q20.6598 12.308 20.6598 13.2647Q20.6598 14.2213 20.0562 14.8477Q19.4526 15.474 18.4732 15.474Q17.4938 15.474 16.7649 14.5743Q16.0475 13.6633 16.0475 12.7066Q16.0475 11.75 16.6283 11.1008Q17.2091 10.4403 18.2113 10.4403ZM31.8102 38.2852Q31.9924 38.1941 32.1405 38.1941Q32.653 38.1941 33.3476 39.219Q34.6118 41.0867 37.3564 41.0867Q40.1124 41.0867 42.7887 38.103Q45.4764 35.1192 45.4764 30.336Q45.4764 25.5528 43.0051 23.8787Q41.889 23.1271 40.2946 23.1271Q38.7116 23.1271 36.9578 24.1521Q35.2154 25.177 33.7235 27.3522Q32.2316 29.516 31.9469 33.2515Q31.8102 35.2103 31.8102 38.2852ZM32.0949 11.2375L31.9013 15.3829L31.9013 25.792Q33.769 22.6146 35.9328 21.4758Q38.108 20.3255 40.6704 20.3255Q44.1667 20.3255 46.4102 22.8082Q48.6538 25.2795 48.6538 29.6185Q48.6538 33.9462 47.1049 37.078Q45.5675 40.1984 42.9823 41.9978Q40.3971 43.7972 37.2197 43.7972Q35.3976 43.7972 33.974 43Q32.5618 42.2028 31.7646 40.9501L31.628 41.7928Q31.5255 42.2484 30.8308 42.7381Q30.1361 43.2278 29.5211 43.2278Q28.7353 43.2278 28.7353 42.3053L28.8264 38.0574L28.8264 15.3374L28.6898 10.3948Q28.6898 9.92783 29.5211 9.92783Q30.3639 9.92783 31.2294 10.2809Q32.0949 10.6225 32.0949 11.2375Z" fill="#19191A" fill-opacity="1.000000" transform="matrix(1 0 0 1 6.73685 6.73686)"/><path d="M57.0889 42.2028L57.1801 37.5905L57.1801 23.2638L56.5765 23.2638L53.5927 23.4574L53.5471 23.4574Q52.9891 23.4574 52.5222 22.7627Q52.0552 22.0566 52.0552 21.4302Q52.0552 20.7924 52.6133 20.7924L56.064 20.7924L57.1801 20.7469L57.1801 15.5196Q57.1801 12.0233 60.0272 10.6225Q61.3369 9.97338 62.8743 9.97338Q64.4117 9.97338 65.5278 10.4859Q66.6553 10.9983 67.2361 11.6817Q67.8169 12.3536 67.8169 12.9572Q67.8169 13.5608 67.35 14.2896Q66.883 15.0071 66.4389 15.0071Q65.9947 15.0071 65.6759 14.4946Q64.7876 12.8205 62.6351 12.8205Q61.7582 12.8205 61.0521 13.5266Q60.3574 14.2213 60.3574 15.7132L60.3574 20.6558L61.3369 20.6102Q61.8949 20.5647 62.7035 20.5191Q63.5234 20.4736 64.2637 20.4052Q65.0153 20.3255 65.3456 20.3255L65.3912 20.3255Q65.9947 20.3255 66.4389 21.0316Q66.883 21.7263 66.883 22.3868Q66.883 23.036 66.325 23.036L63.6715 23.036Q62.4529 23.036 61.8493 23.0815L60.3574 23.1271L60.3574 38.103L60.4941 43.0456Q60.4941 43.5125 59.6514 43.5125Q58.82 43.5125 57.9545 43.1594Q57.0889 42.8178 57.0889 42.2028ZM72.9452 42.2028L73.0363 38.103L73.0363 25.8375L72.8996 20.838Q72.8996 20.428 73.731 20.428Q74.5738 20.428 75.4621 20.7811Q76.3504 21.1227 76.3504 21.6807L76.2592 25.8375L76.2592 38.103L76.3959 43.0456Q76.3959 43.4669 75.5759 43.4669Q74.7674 43.4669 73.8563 43.1139Q72.9452 42.7722 72.9452 42.2028ZM74.4599 10.4403Q75.4621 10.4403 76.1795 11.3742Q76.9084 12.308 76.9084 13.2647Q76.9084 14.2213 76.3048 14.8477Q75.7012 15.474 74.7218 15.474Q73.7424 15.474 73.0135 14.5743Q72.2961 13.6633 72.2961 12.7066Q72.2961 11.75 72.8769 11.1008Q73.4577 10.4403 74.4599 10.4403ZM103.923 38.103L104.06 43.0456Q104.06 43.5125 103.24 43.5125Q102.431 43.5125 101.588 43.1594Q100.746 42.8178 100.746 42.2484L100.746 42.2028Q100.791 41.8384 100.791 40.9501L100.837 37.636L100.837 29.3338Q100.837 26.5778 100.085 24.9265Q99.3448 23.2638 97.0101 23.2638Q93.3317 23.2638 90.8376 25.9514Q88.3435 28.6277 88.241 35.438Q88.1955 36.9869 88.1499 38.103L88.1499 38.8432Q88.1499 40.244 88.2866 43.0456Q88.2866 43.5125 87.4666 43.5125Q86.658 43.5125 85.8153 43.1594Q84.9839 42.8178 84.9839 42.2028L85.075 37.636L85.075 26.0198L84.9384 21.0316Q84.9384 20.5647 85.7469 20.5647Q86.5669 20.5647 87.3983 20.9177Q88.241 21.2594 88.241 21.8744L88.241 22.5235Q88.1499 23.8332 88.1499 25.4617Q89.6418 22.9904 92.0448 21.6807Q94.4477 20.3711 96.8279 20.3711Q101.121 20.3711 102.704 23.3093Q103.923 25.4617 103.923 29.1402L103.923 38.103ZM113.992 34.6067Q113.992 41.0412 118.467 41.0412Q120.517 41.0412 122.522 39.5493Q127.373 36.0075 127.373 27.6028Q127.373 26.4411 127.43 25.2795Q127.009 25.6895 126.724 25.6895Q126.451 25.6895 126.303 25.5073Q124.856 23.036 122.077 23.036Q119.31 23.036 116.645 26.3956Q113.992 29.7552 113.992 34.6067ZM130.129 43.6036Q128.216 43.6036 127.567 37.4994Q125.836 40.7565 123.387 42.3053Q120.939 43.8427 118.331 43.8427Q114.925 43.8427 112.864 41.5309Q110.814 39.219 110.814 34.8345Q110.814 29.0035 114.459 24.619Q116.087 22.6146 118.137 21.4758Q120.198 20.3255 122.339 20.3255Q125.984 20.3255 127.476 23.4118L127.476 20.838Q127.476 20.3711 128.352 20.3711Q129.241 20.3711 130.129 20.7013Q131.017 21.0316 131.017 21.5896L131.017 21.6807Q130.414 25.8375 130.414 33.9006Q130.414 38.7976 132.042 41.3714Q132.133 41.5537 132.133 41.8612Q132.133 42.1573 131.507 42.8861Q130.881 43.6036 130.129 43.6036ZM158.166 38.103L158.303 43.0456Q158.303 43.5125 157.483 43.5125Q156.674 43.5125 155.831 43.1594Q154.989 42.8178 154.989 42.2484L154.989 42.2028Q155.034 41.8384 155.034 40.9501L155.08 37.636L155.08 29.3338Q155.08 26.5778 154.328 24.9265Q153.588 23.2638 151.253 23.2638Q147.575 23.2638 145.081 25.9514Q142.587 28.6277 142.484 35.438Q142.439 36.9869 142.393 38.103L142.393 38.8432Q142.393 40.244 142.53 43.0456Q142.53 43.5125 141.71 43.5125Q140.901 43.5125 140.058 43.1594Q139.227 42.8178 139.227 42.2028L139.318 37.636L139.318 26.0198L139.181 21.0316Q139.181 20.5647 139.99 20.5647Q140.81 20.5647 141.641 20.9177Q142.484 21.2594 142.484 21.8744L142.484 22.5235Q142.393 23.8332 142.393 25.4617Q143.885 22.9904 146.288 21.6807Q148.691 20.3711 151.071 20.3711Q155.364 20.3711 156.947 23.3093Q158.166 25.4617 158.166 29.1402L158.166 38.103ZM183.575 36.4744Q184.281 35.7683 184.702 35.7683Q185.124 35.7683 185.124 36.1897Q185.124 36.6111 184.463 37.8069Q183.814 38.9913 182.459 40.392Q179.099 43.8427 174.111 43.8427Q171.685 43.8427 169.601 42.7039Q167.529 41.5537 166.287 39.3443Q165.057 37.1235 165.057 34.1398Q165.057 31.156 166.105 28.6847Q167.164 26.202 168.884 24.3457Q170.615 22.4779 172.756 21.4074Q174.908 20.3255 176.935 20.3255Q178.963 20.3255 180.261 20.8722Q181.571 21.4074 182.345 22.1591Q183.119 22.8993 183.461 23.5257Q183.814 24.1521 183.814 24.3001Q183.814 25.0404 183.108 25.7464Q182.413 26.4411 181.992 26.4411Q181.571 26.4411 181.434 26.202Q181.104 25.5528 180.773 24.9492Q180.455 24.3457 179.942 24.0154Q178.587 23.0815 177.14 23.0815Q174.157 23.0815 171.218 26.202Q168.235 29.5616 168.235 33.7184Q168.235 36.1441 169.169 37.7727Q170.991 41.1323 174.441 41.1323Q178.917 41.1323 183.575 36.4744ZM194.401 31.2471Q199.628 31.2471 204.058 30.0285Q205.732 29.516 206.222 28.9124Q206.712 28.3088 206.712 27.0903Q206.712 23.036 202.008 23.036Q198.785 23.036 196.45 25.7237Q194.116 28.4 193.467 31.2471L194.401 31.2471ZM189.97 31.156L190.392 31.1104Q191.086 27.4205 194.401 23.8787Q197.715 20.3255 202.054 20.3255Q204.946 20.3255 206.666 21.3505Q209.798 23.1726 209.798 27.1358Q209.798 28.7302 209.536 29.6641Q209.285 30.5865 208.351 31.1787Q207.418 31.7596 205.311 32.4087Q200.653 33.855 193.694 33.855L193.091 33.855L193.091 34.322Q193.091 37.3513 194.651 39.219Q196.223 41.0867 198.876 41.0867Q204.753 41.0867 208.397 37.1691Q209.001 36.4744 209.468 36.4744Q209.934 36.4744 209.934 36.9641Q209.934 37.4538 209.251 38.5243Q208.579 39.5948 207.178 40.859Q203.773 43.8427 198.546 43.8427Q196.177 43.8427 194.241 42.6583Q192.305 41.4626 191.178 39.2304Q190.062 36.9869 190.062 33.9006L190.062 33.2515Q189.082 32.4998 189.082 31.7596Q189.082 31.156 189.97 31.156Z" fill="#3D7FFF" fill-opacity="1.000000" transform="matrix(1 0 0 1 6.73685 6.73686)"/></svg>